<svg width="29" height="37" viewBox="0 0 29 37" fill="none" xmlns="http://www.w3.org/2000/svg">
<path d="M15.5469 37C9.5446 37 4.36229 35.0814 0 31.2444L4.76354 25.6431C8.35815 28.555 12.0049 30.0111 15.704 30.0111C17.3442 30.0111 18.6354 29.7028 19.5776 29.0861C20.5199 28.4694 20.991 27.613 20.991 26.5167C20.991 25.4889 20.5026 24.6667 19.5253 24.05C18.5482 23.3991 16.5766 22.6967 13.6101 21.9431C11.5162 21.4292 9.82386 20.9325 8.53249 20.4528C7.24135 19.9389 6.00256 19.2708 4.81589 18.4486C3.66426 17.6264 2.80942 16.5986 2.2509 15.3653C1.72744 14.0978 1.4657 12.5903 1.4657 10.8431C1.4657 7.58835 2.65238 4.96752 5.02527 2.98056C7.43321 0.993594 10.5217 0 14.2906 0C19.4904 0 24.0271 1.52446 27.9007 4.57361L23.713 10.5347C20.2581 8.17084 17.0825 6.98889 14.1859 6.98889C12.6854 6.98889 11.5162 7.29722 10.6787 7.91389C9.8762 8.49637 9.47473 9.26721 9.47473 10.2264C9.47473 11.3911 9.9809 12.2647 10.9928 12.8472C12.0049 13.4297 14.1336 14.1319 17.3791 14.9542C21.3574 15.9819 24.2888 17.3009 26.1733 18.9111C28.0578 20.5214 29 22.8339 29 25.8486C29 29.3431 27.7612 32.0839 25.2834 34.0708C22.8406 36.0236 19.5951 37 15.5469 37Z" fill="#1C1C1C"/>
</svg>
