<svg width="28" height="24" viewBox="0 0 28 24" fill="none" xmlns="http://www.w3.org/2000/svg">
<path d="M24.2467 1.63405C22.9771 0.5836 21.3464 0.00631649 19.6562 0.00631649C17.704 0.00631649 15.8143 0.782583 14.4723 2.13845C14.2311 2.38255 14.0049 2.64458 13.7926 2.92917C12.1493 0.742092 9.4034 -0.380081 6.68763 0.11622C4.43402 0.525177 2.66226 1.76362 1.42498 3.79452C-0.320751 6.66185 -0.463626 9.42737 1.00272 12.0147C1.78651 13.3989 2.8034 14.7479 4.11183 16.1384C6.50831 18.6859 9.34498 21.1038 13.0395 23.7449C13.2755 23.9144 13.5283 24 13.792 24C14.1981 24 14.4723 23.7947 14.6082 23.694C17.9418 21.3137 20.5603 19.1197 22.8498 16.7857C24.1282 15.4831 25.5789 13.8819 26.6398 11.8823C27.0944 11.0279 27.6127 9.87797 27.582 8.56433C27.5138 5.7375 26.3922 3.40581 24.2467 1.63405ZM24.9033 10.9602C23.9587 12.7384 22.626 14.2059 21.4459 15.4079C19.3288 17.5666 16.9081 19.6096 13.7886 21.8621C10.3937 19.406 7.76584 17.1507 5.54463 14.7883C4.34552 13.514 3.41944 12.2895 2.71317 11.0429C1.59504 9.07047 1.71941 7.09105 3.10535 4.81662C4.03779 3.28491 5.36126 2.35363 7.03989 2.04879C7.36151 1.98979 7.68717 1.96087 8.0082 1.96087C9.99804 1.96087 11.7605 3.0599 12.756 4.96817L12.9249 5.28689C13.0985 5.61255 13.4559 5.79766 13.8088 5.80633C14.1784 5.79939 14.5122 5.58826 14.6747 5.25624C15.0241 4.5436 15.4053 3.99061 15.8704 3.51976C16.8456 2.53583 18.2252 1.9707 19.6562 1.9707C20.8901 1.9707 22.0753 2.38891 22.9944 3.14898C24.7043 4.56095 25.5615 6.34833 25.6165 8.60887C25.6356 9.46207 25.2671 10.2754 24.9033 10.9602Z" fill="#1C1C1C"/>
</svg>
