<svg width="64" height="64" viewBox="0 0 64 64" fill="none" xmlns="http://www.w3.org/2000/svg">
<path d="M57 11.9C56.9 10.3 55.6 9 54 9H48V4C48 3.4 47.6 3 47 3H39C38.4 3 38 3.4 38 4V9H32C30.3 9 29 10.3 29 12V27.8C27.4 27.3 25.7 27 24 27C14.6 27 7 34.6 7 44C7 44.3 7 44.5 7 44.8C7 45 7 45.2 7 45.3C7.7 54.1 15.1 61 24 61C29.2 61 33.8 58.7 36.9 55C36.9 55 36.9 55 37 55H38V60C38 60.6 38.4 61 39 61H47C47.6 61 48 60.6 48 60V55H54C55.7 55 57 53.7 57 52V11.9ZM38.5 46.1L23 55.3V52.6L35.3 46H38.9C38.7 46 38.6 46.1 38.5 46.1ZM10.1 49.6L26.2 41H30.2L11.2 51.7C10.8 51.1 10.4 50.3 10.1 49.6ZM9.3 40.9C9.3 40.9 9.4 40.9 9.4 40.8L29.8 30.1C30.7 30.5 31.6 31 32.4 31.5L9 43.4C9.1 42.5 9.2 41.7 9.3 40.9ZM40.9 42.7C40.8 41.3 40.6 40 40.2 38.8L55 37.1V41.1L40.9 42.7ZM23 47.4L25.6 45.9C25.7 46 25.9 46 26 46H31L23 50.3V47.4ZM29 44L34.3 41H38.7C38.9 42 39 43 39 44H29ZM22.2 39L26.2 37H37C37.1 37 37.2 37 37.2 37C37.5 37.7 37.8 38.3 38.1 39H22.2ZM31 21.9L55 19.1V23.1L31 25.9V21.9ZM55 25.1V29.1L35.3 31.4C34 30.2 32.6 29.3 31 28.5V27.9L55 25.1ZM37.1 33.2L55 31.1V35.1L39.4 36.9C38.8 35.6 38 34.3 37.1 33.2ZM36 35H30.3L34.3 33C34.8 33.6 35.4 34.3 36 35ZM55 13.1V17.1L31 19.9V15.9L55 13.1ZM9.1 45.6L18.3 41H22L9.5 47.6C9.3 47 9.2 46.3 9.1 45.6ZM21 48.5V58.7C20 58.5 19 58.2 18 57.7V50.2L21 48.5ZM41 44.7L55 43.1V47.1L40.3 48.8C40.7 47.5 40.9 46.1 41 44.7ZM40 5H46V9H40V5ZM32 11H39H47H54C54.2 11 54.4 11.1 54.5 11.2L31 13.9V12C31 11.4 31.4 11 32 11ZM27.2 29.3L19 33.6V30V29.9C20.6 29.3 22.3 29 24 29C25.1 29 26.2 29.1 27.2 29.3ZM17 30.7V34.6L10.1 38.2C11.5 35 13.9 32.4 17 30.7ZM12.3 53.4L16 51.3V56.6C14.6 55.8 13.4 54.7 12.3 53.4ZM23 58.9V57.5L30 53.4V57.7C28.2 58.5 26.1 59 24 59C23.7 59 23.3 59 23 58.9ZM32 56.7V52.3L38.3 48.6C37.2 52 34.9 54.8 32 56.7ZM46 59H40V55H46V59ZM54 53H47H39H38.4C38.8 52.3 39.2 51.6 39.5 50.9L55 49.1V52C55 52.6 54.6 53 54 53Z" fill="black"/>
</svg>
