<svg width="23" height="23" viewBox="0 0 23 23" fill="none" xmlns="http://www.w3.org/2000/svg">
<path d="M18.1233 23.0003H4.84869C4.11017 23.0001 3.38144 22.8313 2.71808 22.5067C2.05472 22.1821 1.47426 21.7103 1.02097 21.1272C0.56768 20.5442 0.253536 19.8653 0.102501 19.1424C-0.0485342 18.4195 -0.0324719 17.6716 0.149463 16.9559L2.83979 5.97331C2.88824 5.77696 3.00249 5.60312 3.16351 5.48075C3.32453 5.35837 3.52261 5.29484 3.72477 5.30073H18.5481C18.7433 5.29179 18.936 5.34772 19.0961 5.45978C19.2562 5.57184 19.3747 5.73374 19.4331 5.92021L22.7783 16.6815C23.007 17.4124 23.0597 18.1871 22.932 18.9422C22.8044 19.6974 22.5 20.4116 22.0438 21.0268C21.595 21.6445 21.005 22.1459 20.323 22.4892C19.641 22.8325 18.8868 23.0077 18.1233 23.0003ZM4.3885 7.07068L1.83092 17.3807C1.71703 17.8355 1.7079 18.3103 1.80423 18.7693C1.90055 19.2282 2.09982 19.6592 2.387 20.0299C2.67418 20.4006 3.04177 20.7013 3.46207 20.9092C3.88236 21.1171 4.34438 21.2269 4.81329 21.2303H18.0879C18.5696 21.2311 19.0445 21.1176 19.4737 20.8991C19.9029 20.6807 20.2742 20.3635 20.557 19.9736C20.848 19.5816 21.0421 19.1263 21.1236 18.6449C21.2052 18.1635 21.1717 17.6697 21.0261 17.2037L17.9109 7.07068H4.3885Z" fill="#1C1C1C"/>
<path d="M15.0082 12.3804C14.7735 12.3804 14.5484 12.2872 14.3825 12.1212C14.2165 11.9552 14.1233 11.7301 14.1233 11.4954V4.4156C14.1233 3.71147 13.8436 3.03618 13.3457 2.53829C12.8478 2.04039 12.1725 1.76068 11.4683 1.76068C10.7642 1.76068 10.0889 2.04039 9.59102 2.53829C9.09312 3.03618 8.81341 3.71147 8.81341 4.4156V11.4954C8.81341 11.7301 8.72017 11.9552 8.55421 12.1212C8.38824 12.2872 8.16314 12.3804 7.92843 12.3804C7.69372 12.3804 7.46863 12.2872 7.30266 12.1212C7.1367 11.9552 7.04346 11.7301 7.04346 11.4954V4.4156C7.04346 3.24205 7.50965 2.11657 8.33947 1.28674C9.1693 0.456914 10.2948 -0.00927734 11.4683 -0.00927734C12.6419 -0.00927734 13.7674 0.456914 14.5972 1.28674C15.427 2.11657 15.8932 3.24205 15.8932 4.4156V11.4954C15.8932 11.7301 15.8 11.9552 15.634 12.1212C15.4681 12.2872 15.243 12.3804 15.0082 12.3804Z" fill="#1C1C1C"/>
</svg>
