<svg width="21" height="21" viewBox="0 0 21 21" fill="none" xmlns="http://www.w3.org/2000/svg">
<path d="M10.0508 10.9417H0.50897C0.227807 10.9417 0 10.7139 0 10.4328C0 10.1516 0.227807 9.92383 0.50897 9.92383H10.0508C10.3319 9.92383 10.5597 10.1516 10.5597 10.4328C10.5597 10.7139 10.3319 10.9417 10.0508 10.9417Z" fill="black"/>
<path d="M20.4911 10.9418H15.4289C15.1478 10.9418 14.9199 10.7139 14.9199 10.4328C14.9199 10.1516 15.1478 9.92383 15.4289 9.92383H20.4911C20.7722 9.92383 21.0001 10.1516 21.0001 10.4328C21.0001 10.7139 20.7722 10.9418 20.4911 10.9418Z" fill="black"/>
<path d="M7.36177 17.3871H0.508971C0.227807 17.3871 0 17.1592 0 16.8781C0 16.597 0.227807 16.3691 0.508971 16.3691H7.36177C7.64293 16.3691 7.87074 16.597 7.87074 16.8781C7.87074 17.1592 7.64293 17.3871 7.36177 17.3871Z" fill="black"/>
<path d="M20.4909 17.3871H12.7394C12.4583 17.3871 12.2305 17.1592 12.2305 16.8781C12.2305 16.597 12.4583 16.3691 12.7394 16.3691H20.4909C20.772 16.3691 20.9998 16.597 20.9998 16.8781C20.9998 17.1592 20.772 17.3871 20.4909 17.3871Z" fill="black"/>
<path d="M4.43905 4.63073H0.50897C0.227807 4.63073 0 4.40289 0 4.12176C0 3.84063 0.227807 3.61279 0.50897 3.61279H4.43905C4.72018 3.61279 4.94803 3.8406 4.94803 4.12176C4.94803 4.40293 4.72022 4.63073 4.43905 4.63073Z" fill="black"/>
<path d="M20.4913 4.63073H9.81756C9.5364 4.63073 9.30859 4.40293 9.30859 4.12176C9.30859 3.8406 9.5364 3.61279 9.81756 3.61279H20.4915C20.7727 3.61279 21.0005 3.8406 21.0005 4.12176C21.0003 4.40289 20.7725 4.63073 20.4913 4.63073Z" fill="black"/>
<path d="M6.02627 6.21811C4.87008 6.21811 3.92969 5.27772 3.92969 4.12156C3.92969 2.96578 4.87008 2.02539 6.02627 2.02539C7.18205 2.02539 8.12241 2.96578 8.12241 4.12156C8.12223 5.27775 7.18184 6.21811 6.02627 6.21811ZM6.02627 3.04337C5.43158 3.04337 4.94766 3.52708 4.94766 4.12156C4.94766 4.71625 5.43158 5.20017 6.02627 5.20017C6.62075 5.20017 7.10447 4.71621 7.10447 4.12156C7.10429 3.52712 6.62054 3.04337 6.02627 3.04337Z" fill="black"/>
<path d="M8.84264 18.9747C7.68645 18.9747 6.74609 18.0343 6.74609 16.8781C6.74609 15.7222 7.68645 14.7817 8.84264 14.7817C9.99863 14.7817 10.939 15.7221 10.939 16.8781C10.9388 18.0343 9.99846 18.9747 8.84264 18.9747ZM8.84264 15.7997C8.24796 15.7997 7.76403 16.2835 7.76403 16.8782C7.76403 17.4729 8.24796 17.9569 8.84264 17.9569C9.43733 17.9569 9.92104 17.4729 9.92104 16.8782C9.92104 16.2835 9.43716 15.7997 8.84264 15.7997Z" fill="black"/>
<path d="M11.6374 12.5285C10.4814 12.5285 9.54102 11.5881 9.54102 10.4321C9.54102 9.27633 10.4814 8.33594 11.6374 8.33594C12.7933 8.33594 13.7337 9.27633 13.7337 10.4321C13.7337 11.5881 12.7933 12.5285 11.6374 12.5285ZM11.6374 9.35391C11.0427 9.35391 10.559 9.83763 10.559 10.4321C10.559 11.0268 11.0427 11.5105 11.6374 11.5105C12.2321 11.5105 12.7158 11.0268 12.7158 10.4321C12.7158 9.83763 12.2321 9.35391 11.6374 9.35391Z" fill="black"/>
</svg>
