<svg width="69" height="69" viewBox="0 0 69 69" fill="none" xmlns="http://www.w3.org/2000/svg">
<path d="M31.883 29.4305C35.9878 32.925 40.0289 35.3112 40.199 35.411C40.4067 35.5328 40.6449 35.5973 40.8857 35.5973C41.1266 35.5973 41.3632 35.5328 41.5709 35.411C41.741 35.3112 45.782 32.9251 49.8869 29.4305C55.5935 24.5725 58.4869 20.0954 58.4869 16.1236C58.4869 10.8812 54.222 6.61646 48.9798 6.61646C45.5865 6.61646 42.569 8.40587 40.8849 11.1349C39.201 8.40587 36.1834 6.61646 32.7901 6.61646C27.5477 6.61646 23.2829 10.8814 23.2829 16.1236C23.2829 20.0953 26.1763 24.5724 31.883 29.4305ZM32.7901 9.32201C36.2334 9.32201 39.1357 11.8971 39.5415 15.3118C39.6222 15.9925 40.1994 16.505 40.8849 16.505C41.5705 16.505 42.1476 15.9924 42.2284 15.3118C42.6342 11.8971 45.5365 9.32201 48.9798 9.32201C52.7302 9.32201 55.7811 12.3732 55.7811 16.1234C55.7811 22.203 45.609 29.7484 40.8849 32.6648C36.1606 29.7482 25.9888 22.203 25.9888 16.1234C25.9888 12.373 29.0398 9.32201 32.7901 9.32201Z" fill="black"/>
<path d="M40.8861 29.1528C41.1508 29.1528 41.4181 29.0754 41.6524 28.9138C43.4126 27.7012 45.0391 26.4575 46.4873 25.2175C47.0049 24.7741 47.5038 24.3268 47.9704 23.8883C48.5145 23.3764 48.5408 22.5203 48.029 21.976C47.5171 21.4318 46.6611 21.4054 46.1165 21.9172C45.6807 22.3272 45.2132 22.7461 44.7272 23.1622C43.3507 24.3411 41.7998 25.5266 40.1174 26.6855C39.5021 27.1095 39.3471 27.9517 39.7708 28.5671C40.0333 28.9482 40.4561 29.1528 40.8861 29.1528Z" fill="black"/>
<path d="M49.6355 20.2348C49.871 20.3985 50.1402 20.4771 50.4068 20.4771C50.8347 20.4771 51.2557 20.2745 51.5188 19.8965C51.5528 19.8476 51.5863 19.7987 51.6192 19.7503C52.0379 19.1315 51.8756 18.2904 51.2569 17.8715C50.6381 17.453 49.7971 17.6151 49.3781 18.2338C49.3519 18.2727 49.3246 18.312 49.2973 18.3514C48.8707 18.965 49.0222 19.8081 49.6355 20.2348Z" fill="black"/>
<path d="M68.243 42.4792C66.7088 39.8216 63.3952 38.8838 60.6961 40.3421L51.1585 45.373C51.1539 45.3755 51.1495 45.3777 51.1449 45.3802C49.9363 46.0354 48.5888 46.4168 47.2181 46.4954C47.6198 45.7579 47.8481 44.9129 47.8481 44.0158C47.8481 41.1484 45.5152 38.8155 42.6478 38.8155H34.9005C29.6587 38.8155 25.1846 40.5634 22.0933 43.7196V42.0341C22.0933 40.4477 20.803 39.1574 19.2168 39.1574H1.35291C0.605771 39.1571 0 39.763 0 40.51V61.0131C0 61.7601 0.605771 62.366 1.35291 62.366L19.2168 62.3835C20.803 62.3835 22.0933 61.0932 22.0933 59.507V58.1644L27.5896 59.5982C29.0189 59.9712 30.493 60.1603 31.9709 60.1603H44.4074C46.4057 60.1603 48.3911 59.6574 50.1402 58.7106L66.0513 50.2389C67.3979 49.509 68.3688 48.2954 68.785 46.8216C69.2013 45.3478 69.0088 43.8056 68.243 42.4792ZM11.445 59.6601H2.70582V41.8628H11.445V59.6601ZM19.3875 47.7604C19.3823 47.8321 19.3813 47.9042 19.3875 47.9758V56.4133V59.5068C19.3875 59.6009 19.311 59.6776 19.2168 59.6776H14.1507V41.8628H19.2168C19.3108 41.8628 19.3875 41.9393 19.3875 42.0337V47.7604ZM66.1811 46.0862C65.9649 46.8513 65.4611 47.4813 64.7708 47.8553L48.8602 56.3268C47.4973 57.0645 45.9575 57.4545 44.4074 57.4545H31.9709C30.7235 57.4545 29.4793 57.2948 28.2728 56.98L22.0933 55.3681V48.1949C24.4799 43.9483 29.1261 41.5206 34.9005 41.5206H42.6478C44.0235 41.5206 45.1424 42.6396 45.1424 44.0153C45.1424 45.391 44.0235 46.51 42.6478 46.51H33.4091C32.6621 46.51 32.0562 47.1158 32.0562 47.863C32.0562 48.61 32.6619 49.2159 33.4091 49.2159H42.6478H46.6875C48.6857 49.2159 50.6701 48.7133 52.4275 47.7623L61.9651 42.7314C61.9697 42.7289 61.9741 42.7266 61.9786 42.7242C63.3807 41.9643 65.1028 42.4509 65.8998 43.8317C66.2971 44.5205 66.3971 45.3211 66.1811 46.0862Z" fill="black"/>
</svg>
