<svg width="64" height="64" viewBox="0 0 64 64" fill="none" xmlns="http://www.w3.org/2000/svg">
<path d="M57.6377 51.189H5.88C5.61479 51.189 5.36043 51.0836 5.1729 50.8961C4.98536 50.7086 4.88 50.4542 4.88 50.189V37.7935C4.88 30.6648 7.71188 23.828 12.7527 18.7872C17.7934 13.7465 24.6302 10.9146 31.7589 10.9146C38.8876 10.9146 45.7244 13.7465 50.7652 18.7872C55.8059 23.828 58.6378 30.6648 58.6378 37.7935V50.189C58.6378 50.3203 58.6119 50.4504 58.5617 50.5717C58.5114 50.693 58.4377 50.8033 58.3449 50.8961C58.252 50.989 58.1418 51.0627 58.0204 51.1129C57.8991 51.1632 57.769 51.189 57.6377 51.189ZM6.8799 49.189H56.6377V37.7935C56.6377 31.1952 54.0165 24.8672 49.3508 20.2015C44.6851 15.5358 38.3571 12.9146 31.7588 12.9146C25.1605 12.9146 18.8325 15.5358 14.1668 20.2015C9.50107 24.8672 6.8799 31.1952 6.8799 37.7935V49.189Z" fill="black"/>
<path d="M58.3086 63H5.69143C4.62034 62.9987 3.59349 62.5727 2.83612 61.8153C2.07875 61.0579 1.6527 60.0311 1.65143 58.96V53.229C1.6527 52.1579 2.07875 51.1311 2.83612 50.3737C3.59349 49.6163 4.62034 49.1903 5.69143 49.189H58.3086C59.3797 49.1903 60.4066 49.6163 61.1639 50.3737C61.9213 51.1311 62.3474 52.1579 62.3486 53.229V58.96C62.3474 60.0311 61.9213 61.0579 61.1639 61.8153C60.4066 62.5727 59.3797 62.9987 58.3086 63ZM5.69143 51.189C5.15056 51.1896 4.632 51.4047 4.24954 51.7871C3.86709 52.1696 3.65198 52.6881 3.65143 53.229V58.96C3.65198 59.5009 3.86709 60.0194 4.24954 60.4019C4.632 60.7843 5.15056 60.9994 5.69143 61H58.3086C58.8495 60.9994 59.3681 60.7843 59.7505 60.4019C60.133 60.0194 60.3481 59.5009 60.3486 58.96V53.229C60.3481 52.6881 60.133 52.1696 59.7505 51.7871C59.3681 51.4047 58.8495 51.1896 58.3086 51.189H5.69143Z" fill="black"/>
<path d="M12.041 63C11.7758 63 11.5214 62.8946 11.3339 62.7071C11.1464 62.5196 11.041 62.2652 11.041 62V50.189C11.041 49.9238 11.1464 49.6694 11.3339 49.4819C11.5214 49.2944 11.7758 49.189 12.041 49.189C12.3062 49.189 12.5606 49.2944 12.7481 49.4819C12.9357 49.6694 13.041 49.9238 13.041 50.189V62C13.041 62.2652 12.9357 62.5196 12.7481 62.7071C12.5606 62.8946 12.3062 63 12.041 63Z" fill="black"/>
<path d="M21.4307 63C21.1655 63 20.9112 62.8946 20.7236 62.7071C20.5361 62.5196 20.4307 62.2652 20.4307 62V50.189C20.4307 49.9238 20.5361 49.6694 20.7236 49.4819C20.9112 49.2944 21.1655 49.189 21.4307 49.189C21.6959 49.189 21.9503 49.2944 22.1378 49.4819C22.3254 49.6694 22.4307 49.9238 22.4307 50.189V62C22.4307 62.2652 22.3254 62.5196 22.1378 62.7071C21.9503 62.8946 21.6959 63 21.4307 63Z" fill="black"/>
<path d="M29.3232 63C29.058 63 28.8037 62.8946 28.6161 62.7071C28.4286 62.5196 28.3232 62.2652 28.3232 62V50.189C28.3232 49.9238 28.4286 49.6694 28.6161 49.4819C28.8037 49.2944 29.058 49.189 29.3232 49.189C29.5885 49.189 29.8428 49.2944 30.0303 49.4819C30.2179 49.6694 30.3232 49.9238 30.3232 50.189V62C30.3232 62.2652 30.2179 62.5196 30.0303 62.7071C29.8428 62.8946 29.5885 63 29.3232 63Z" fill="black"/>
<path d="M29.3232 63C29.058 63 28.8037 62.8946 28.6161 62.7071C28.4286 62.5196 28.3232 62.2652 28.3232 62V50.189C28.3232 49.9238 28.4286 49.6694 28.6161 49.4819C28.8037 49.2944 29.058 49.189 29.3232 49.189C29.5885 49.189 29.8428 49.2944 30.0303 49.4819C30.2179 49.6694 30.3232 49.9238 30.3232 50.189V62C30.3232 62.2652 30.2179 62.5196 30.0303 62.7071C29.8428 62.8946 29.5885 63 29.3232 63Z" fill="black"/>
<path d="M37.3291 63C37.0639 63 36.8095 62.8946 36.622 62.7071C36.4345 62.5196 36.3291 62.2652 36.3291 62V50.189C36.3291 49.9238 36.4345 49.6694 36.622 49.4819C36.8095 49.2944 37.0639 49.189 37.3291 49.189C37.5943 49.189 37.8487 49.2944 38.0362 49.4819C38.2237 49.6694 38.3291 49.9238 38.3291 50.189V62C38.3291 62.2652 38.2237 62.5196 38.0362 62.7071C37.8487 62.8946 37.5943 63 37.3291 63Z" fill="black"/>
<path d="M45.3359 63C45.0707 63 44.8164 62.8946 44.6288 62.7071C44.4413 62.5196 44.3359 62.2652 44.3359 62V50.189C44.3359 49.9238 44.4413 49.6694 44.6288 49.4819C44.8164 49.2944 45.0707 49.189 45.3359 49.189C45.6012 49.189 45.8555 49.2944 46.043 49.4819C46.2306 49.6694 46.3359 49.9238 46.3359 50.189V62C46.3359 62.2652 46.2306 62.5196 46.043 62.7071C45.8555 62.8946 45.6012 63 45.3359 63Z" fill="black"/>
<path d="M53.3428 63C53.0776 63 52.8233 62.8946 52.6357 62.7071C52.4482 62.5196 52.3428 62.2652 52.3428 62V50.189C52.3428 49.9238 52.4482 49.6694 52.6357 49.4819C52.8233 49.2944 53.0776 49.189 53.3428 49.189C53.6081 49.189 53.8624 49.2944 54.0499 49.4819C54.2375 49.6694 54.3428 49.9238 54.3428 50.189V62C54.3428 62.2652 54.2375 62.5196 54.0499 62.7071C53.8624 62.8946 53.6081 63 53.3428 63Z" fill="black"/>
<path d="M10.95 40.3911C10.7593 40.3913 10.5726 40.3367 10.4119 40.2339L5.39755 37.0288C5.28452 36.9592 5.18646 36.8679 5.1091 36.7601C5.03174 36.6522 4.97661 36.5301 4.94694 36.4007C4.91727 36.2713 4.91365 36.1374 4.93628 36.0066C4.95891 35.8758 5.00735 35.7509 5.07877 35.639C5.15018 35.5271 5.24315 35.4306 5.35226 35.3551C5.46136 35.2795 5.58441 35.2264 5.71425 35.1989C5.84408 35.1713 5.97809 35.1699 6.10847 35.1947C6.23885 35.2195 6.36299 35.27 6.47365 35.3433L10.95 38.2041L17.3436 34.1118C17.5046 34.009 17.6917 33.9544 17.8827 33.9544C18.0737 33.9544 18.2608 34.009 18.4217 34.1118L24.8162 38.2041L31.21 34.1118C31.371 34.009 31.5581 33.9544 31.7491 33.9544C31.9401 33.9544 32.1272 34.009 32.2882 34.1118L38.6826 38.2041L45.0879 34.1113C45.2486 34.0085 45.4353 33.9539 45.626 33.9539C45.8168 33.9539 46.0035 34.0085 46.1642 34.1113L52.57 38.2046L57.0466 35.3433C57.1573 35.27 57.2815 35.2195 57.4118 35.1947C57.5422 35.1699 57.6762 35.1713 57.8061 35.1989C57.9359 35.2264 58.0589 35.2795 58.168 35.3551C58.2771 35.4306 58.3701 35.5271 58.4415 35.639C58.513 35.7509 58.5614 35.8758 58.584 36.0066C58.6067 36.1374 58.603 36.2713 58.5734 36.4007C58.5437 36.5301 58.4886 36.6522 58.4112 36.7601C58.3338 36.8679 58.2358 36.9592 58.1227 37.0288L53.1082 40.2339C52.9475 40.3367 52.7608 40.3913 52.57 40.3913C52.3793 40.3913 52.1926 40.3367 52.0319 40.2339L45.626 36.1406L39.2207 40.2339C39.0599 40.3367 38.8731 40.3913 38.6822 40.3913C38.4913 40.3913 38.3045 40.3367 38.1437 40.2339L31.7491 36.1411L25.3555 40.2334C25.1946 40.3362 25.0075 40.3909 24.8165 40.3909C24.6254 40.3909 24.4383 40.3362 24.2773 40.2334L17.8828 36.1411L11.4893 40.2334C11.3283 40.3364 11.1412 40.3912 10.95 40.3911Z" fill="black"/>
<path d="M31.7588 12.9146C30.5806 12.9147 29.4288 12.5653 28.4491 11.9108C27.4694 11.2562 26.7057 10.3259 26.2548 9.23734C25.8038 8.1488 25.6858 6.951 25.9156 5.79538C26.1454 4.63977 26.7128 3.57825 27.5459 2.74506C28.379 1.91188 29.4404 1.34445 30.596 1.11453C31.7516 0.884603 32.9494 1.00252 34.038 1.45336C35.1266 1.9042 36.057 2.66771 36.7117 3.64735C37.3663 4.62699 37.7158 5.77876 37.7158 6.957C37.714 8.53639 37.0858 10.0506 35.9691 11.1674C34.8523 12.2843 33.3382 12.9126 31.7588 12.9146ZM31.7588 3C30.9761 2.99994 30.211 3.23199 29.5601 3.6668C28.9093 4.10161 28.4021 4.71965 28.1025 5.44277C27.8029 6.16588 27.7246 6.96159 27.8772 7.72926C28.0299 8.49693 28.4068 9.20208 28.9603 9.75553C29.5137 10.309 30.2189 10.6859 30.9866 10.8386C31.7542 10.9913 32.5499 10.9129 33.273 10.6133C33.9962 10.3138 34.6142 9.80649 35.049 9.15567C35.4838 8.50485 35.7159 7.7397 35.7158 6.957C35.7145 5.90793 35.2972 4.90219 34.5554 4.16038C33.8136 3.41857 32.8079 3.00127 31.7588 3Z" fill="black"/>
</svg>
