<svg width="24" height="25" viewBox="0 0 24 25" fill="none" xmlns="http://www.w3.org/2000/svg">
<path fill-rule="evenodd" clip-rule="evenodd" d="M15.9973 18.0736C14.2977 19.3316 19.5828 13.9271 18.0789 15.9815C18.1165 15.9785 18.0468 16.0924 17.8129 16.3779C17.8129 16.3779 21.8295 20.3674 23.8011 22.3977C24.4856 23.1379 23.2506 24.6152 22.4116 23.844C20.6261 22.1117 16.4013 17.8066 16.3948 17.7996L15.9973 18.0736Z" fill="#1C1C1C"/>
<path d="M10.0955 20.0907C12.6798 20.0656 15.2381 18.9952 17.0777 17.1772C19.2627 15.0179 20.3877 11.8233 19.9953 8.77325C19.3229 3.54684 15.0263 0 10.0312 0C6.23601 0 2.54766 2.37409 0.929803 5.81655C-0.308679 8.45209 -0.311189 11.6341 0.929803 14.2742C2.53612 17.6925 6.16425 20.0541 9.96651 20.0907C10.0097 20.0907 10.0528 20.0907 10.0955 20.0907ZM9.97705 18.4162C6.11758 18.379 2.51655 15.3942 1.80045 11.5674C1.29563 8.8696 2.24858 5.95003 4.23376 4.0341C6.55115 1.7965 10.1938 1.04729 13.2228 2.31538C15.9326 3.44999 17.9609 6.08452 18.3348 8.98703C18.655 11.475 17.7622 14.0825 16.0079 15.8785C14.4688 17.4542 12.3105 18.3946 10.0849 18.4162C10.0488 18.4162 10.0132 18.4162 9.97705 18.4162Z" fill="#1C1C1C"/>
</svg>
